<?xml version="1.0" encoding="utf-8"?>
<!-- Generator: Adobe Adobe Illustrator 24.2.0, SVG Export Plug-In . SVG Version: 6.00 Build 0)  -->
<svg version="1.1" id="Layer_1" xmlns="http://www.w3.org/2000/svg" xmlns:xlink="http://www.w3.org/1999/xlink" x="0px" y="0px"
	 width="1024px" height="1024px" viewBox="0 0 1024 1024" style="enable-background:new 0 0 1024 1024;" xml:space="preserve">
<style type="text/css">
	.st0{fill:none;}
	.st1{fill:#F2D9C7;}
	.st2{fill:#E0AE8B;}
	.st3{fill:#342F2C;}
	.st4{fill:#FFFFFF;}
</style>
<rect x="-8.54" class="st0" width="1051" height="1051"/>
<rect x="-8.54" y="-19" class="st1" width="1060" height="1070"/>
<g>
	<path class="st2" d="M897.99,498.44c1.66-1.74,3.36-3.44,4.98-5.22c1.47-1.62,7.88-3.1,10-1.68c1.68,1.13,4.43,0.76,5.07,3.39
		c3.23,0.02,3.11,3.63,5.27,4.96c1.57,0.97,1.62,2.88,0.2,4.46c-0.45,0.5-1.28,1.16-1.18,1.55c0.71,2.7-1.01,4.73-1.87,6.9
		c-1.76,4.42-3.93,8.69-5.91,13.02c-0.33,0.72-0.97,1.57-0.81,2.19c0.68,2.63-0.69,4.46-2.26,6.11c-1.58,1.67-2.2,3.24-1.88,5.69
		c0.22,1.69-0.89,3.72-1.84,5.35c-1.09,1.87-1.48,3.91-2.21,5.85c-1.95,5.18-4.49,10.15-7,15.09c-0.52,1.02-1.93,1.58-3.19,2.55
		c0.43,0.48,0.85,0.95,1.66,1.86c-0.97,1.59-2.12,3.46-3.27,5.32c-0.07,0.11-0.31,0.18-0.32,0.27c-0.14,3.63-3.13,5.9-4.32,8.99
		c-6.55,17.03-14.54,33.35-23.88,49c-1.58,2.65-3.8,4.93-5.86,7.26c-1.07,1.2-2.46,2.11-3.83,3.25c1.11,2.29,0.09,4.27-1.65,6.22
		c-4.63,5.15-8.91,10.65-13.83,15.51c-3.51,3.47-6.68,7.26-10.72,10.34c-4.83,3.67-8.79,8.54-12.85,13.13
		c-6.28,7.09-13.1,13.56-20.6,19.33c-4.75,3.65-9.33,7.57-14.31,10.88c-4.14,2.76-8.73,4.85-13.16,7.18
		c-13.28,6.99-27.48,10.71-42.33,12.72c-15.34,2.07-30.18-0.24-45.08-3.27c-9.7-1.97-19.19-4.57-28.36-8.29
		c-2.96-1.2-5.04-0.5-7.3,1.57c-5.71,5.2-11.4,10.45-17.5,15.18c-5.28,4.1-11.04,7.6-16.69,11.2c-6.13,3.91-12.3,7.76-18.58,11.43
		c-21.84,12.76-45.12,21.61-70.35,24.42c-9.76,1.09-19.67,1.19-29.5,1.09c-21.79-0.23-42.87-4.65-63.48-11.6
		c-13.44-4.53-26.66-9.62-39.41-15.82c-16.91-8.22-32.9-18-47.66-29.64c-8.64-6.81-16.98-14.05-25.09-21.48
		c-13.56-12.43-25.17-26.59-35.68-41.67c-0.74-1.06-1.51-2.09-2.18-3.19c-1.09-1.8-2.52-1.85-4.43-1.4
		c-8.06,1.91-16.1,4.1-24.27,5.37c-11.43,1.77-22.95,3.08-34.56,3.01c-12.71-0.08-25.3-1.25-37.82-3.57
		c-12.84-2.39-25.37-5.76-37.45-10.7c-8.94-3.65-17.2-8.48-24.19-15.25c-3.37-3.27-6.07-6.85-5.37-12.04
		c0.18-1.34-0.3-2.85-0.76-4.19c-0.53-1.54-1.08-2.92,0.17-4.4c0.29-0.34,0.37-1.21,0.15-1.6c-1.55-2.67,0.19-5.34-0.05-8.01
		c-0.18-1.96,1.3-3.06,3.17-3.45c1.38-0.29,2.77-0.53,4.19-0.79c0.24-0.82,0.47-1.59,0.74-2.5c2.05,0.26,3.99,0.51,6.1,0.78
		c0-0.46,0-1.11,0-1.91c0.85,0,1.63,0,2.64,0c0.21-0.33,0.63-0.76,0.77-1.27c0.61-2.17,1.89-2.76,4.14-2.48
		c4.18,0.52,7.46,2.69,10.73,5.03c3.8,2.72,7.51,5.61,11.51,8.01c12.48,7.46,26.46,10.49,40.48,13.44
		c15.4,3.24,30.93,3.59,46.55,2.46c4.13-0.3,8.26-0.72,12.38-1.14c0.8-0.08,1.57-0.46,2.72-0.81c-0.57-1.4-0.96-2.58-1.5-3.69
		c-8.63-17.82-15.55-36.31-21.23-55.26c-4.43-14.82-8.15-29.85-9.71-45.26c-1.37-13.5-2.46-27.04-1.96-40.69
		c0.55-14.94,2.11-29.7,6.01-44.12c3.97-14.67,9.57-28.75,15.76-42.64c4.57-10.26,10.07-19.91,16.36-29.13
		c3.93-5.76,8.47-11.11,12.74-16.65c0.17-0.22,0.44-0.39,0.57-0.63c4.51-8.15,11.68-14.04,17.91-20.69
		c5.86-6.25,12.05-12.25,18.61-17.75c7.84-6.58,16.36-12.35,24.34-18.78c7.63-6.15,16.09-10.88,24.71-15.34
		c9-4.64,18.06-9.18,27.32-13.28c4.93-2.18,10.31-3.36,15.51-4.92c4.24-1.27,8.48-2.54,12.77-3.59c2.31-0.56,4.74-0.67,7.12-0.96
		c0.55-0.07,1.25,0.17,1.66-0.08c5.02-3.2,10.88-3.26,16.44-4.24c16.41-2.89,32.99-3.66,49.53-1.75
		c12.31,1.42,24.69,2.92,36.51,7.04c7.1,2.47,14.33,4.64,21.26,7.55c7.63,3.2,15.04,6.95,22.41,10.72
		c9.18,4.69,17.81,10.27,26.01,16.57c7.73,5.95,13.63,13.43,19.16,21.32c2.69,3.85,5.74,7.44,8.36,11.34
		c2.94,4.37,5.72,8.87,8.27,13.48c1.93,3.49,4.06,5.5,8.53,5.6c11.44,0.24,22.7,1.87,33.74,5.25c16.85,5.16,32.1,13.33,46.51,23.28
		c0.82,0.57,1.57,1.24,2.34,1.88c2.71,2.25,5.32,4.6,8.14,6.74c3.43,2.61,6.25,6.1,9.02,9.47c1.39,1.69,2.01,3.99,3.08,5.96
		c1.53,2.82,1.56,2.8,4.98,4.42c-1.83,1.08-1.02,2.32-0.28,3.56c2.2,3.65,4.41,7.29,6.62,10.93c1.57,2.6,1.58,3.18,0.1,7.55
		c1.48,1.07,3.84,1.67,3.52,4.29c3.48-0.56,1.57,2.83,2.81,3.97c0.22,0.2-0.36,1.26-0.66,2.21c4.09,3.42,5.28,8.75,6.65,13.92
		c1.83,6.89,3.31,13.86,3.73,21.01c0.49,8.11,1.41,16.2,0.39,24.34c-0.3,2.37,0.01,4.8-0.03,7.21c-0.05,3.85,0.19,7.74-0.3,11.53
		c-0.83,6.36-2.49,12.62-3.19,18.98c-1.13,10.19-5.24,19.61-7.07,29.59c-2.81,2.97-2.61,7.55-5.62,10.48
		c-0.72,0.7-0.89,2.04-1.16,3.13c-0.86,3.51-1.96,6.79-5.24,8.95c-0.65,0.43-0.91,2.02-0.75,2.98c0.54,3.26-0.49,5.7-3.24,7.47
		c-0.36,0.23-0.76,0.44-1.03,0.75c-0.27,0.31-0.68,0.85-0.57,1.09c1.57,3.6-3.4,5.55-2.24,9.02c0.63,1.9,0.1,3.5-0.89,5.24
		c-1.1,1.94-1.44,4.31-2.47,6.31c-5.17,9.95-10.48,19.78-17.26,28.83c-3.13,4.18-6.28,8.31-9.58,12.35
		c-1.4,1.71-2.28,3.84-3.59,5.64c-0.91,1.25-2.07,2.37-3.3,3.32c-1.17,0.9-1.82,1.75-2.23,3.32c-0.47,1.79-1.9,3.54-3.34,4.84
		c-4.23,3.84-7.03,8.89-11.18,12.78c-0.49,0.45-0.68,1.22-1.26,2.34c1.73,0.87,3.23,1.99,4.91,2.4c7.06,1.71,14.1,3.76,21.28,4.61
		c7.34,0.87,14.83,0.75,22.24,0.57c11.73-0.28,22.85-3.54,33.48-8.31c3.85-1.73,7.33-4.34,10.86-6.73
		c4.47-3.03,9.08-5.92,13.14-9.44c5.7-4.95,11.13-10.25,16.34-15.72c3.64-3.82,6.77-8.13,10.04-12.3
		c6.29-8.03,11.59-16.73,16.2-25.78c7.98-15.69,15.74-31.49,23.14-47.46c6.49-14.02,12.39-28.31,18.47-42.52
		c3.82-8.93,7.48-17.92,11.25-26.87c1.16-2.76,2.08-5.58,6.33-4.75c1.13,0.22,2.89-1.46,4.89-0.94
		C898.11,498.39,897.99,498.44,897.99,498.44z M283.11,580.76c0.86,1.64,1.76,3.27,2.58,4.93c3.91,7.94,7.64,15.97,11.78,23.79
		c1.89,3.57,3.64,7.38,6.53,10.17c2.37-0.74,4.39-1.1,6.15-1.98c5.56-2.81,11.03-5.81,16.52-8.76c3.49-1.87,3.62-2.46,1.05-5.22
		c-9.2-9.89-17.09-20.73-23.83-32.44c-8.06-14.01-13.65-28.97-17.51-44.6c-3.74-15.12-4.9-30.48-3.84-46
		c0.55-8.02,2.04-15.88,4.39-23.59c2.52-8.29,6.92-15.64,10.92-23.24c3.01-5.71,8.43-9.49,11.03-15.36c4.29-1.84,7.49-4.87,9.64-9
		c0.05-0.1,0.27-0.11,0.37-0.2c5.66-5.12,12.43-8.51,19.06-12.05c6.77-3.62,13.63-7.06,21.33-8.6c6.83-1.36,13.52-3.21,20.58-3.43
		c15.45-0.48,29.24,4.14,41.85,12.79c0.8,0.55,1.85,1.16,2.14,1.97c1.93,5.35,6.39,8.84,9.84,12.94c3.24,3.85,5.96,7.93,8.23,12.27
		c2.23,4.27,3.81,8.9,5.45,13.46c1.39,3.88,2.73,7.81,3.57,11.83c1.19,5.72,1.04,11.53,0.69,17.38c-0.38,6.48,0.49,13.07-2.53,19.19
		c-0.12,0.24-0.2,0.64-0.08,0.82c1.37,2.17-0.01,4.2-0.42,6.2c-2.05,9.77-4.52,19.42-8.82,28.5c-0.78,1.65-1.12,3.56-2.08,5.08
		c-1.37,2.17-1.46,5.34-4.31,6c0,1.22,0.39,2.45-0.07,3.12c-2.24,3.3-4.69,6.45-7.6,10.37c0.95,2.05-0.51,4.06-2.93,5.83
		c-0.84,0.61-1.19,1.88-1.76,2.86c-1.07,1.83-1.73,4.19-3.3,5.34c-1.75,1.29-2.6,2.78-3.34,4.61c-0.37,0.89-0.99,1.69-1.58,2.47
		c-4.37,5.73-10.62,9.67-14.58,15.88c-1.98,3.11-5.28,5.37-7.92,8.07c-1.43,1.46-1.26,2.72,0.57,3.84c1.33,0.82,2.89,1.3,4.2,2.15
		c8.73,5.67,18.45,9.24,28.29,12.08c9.98,2.88,20.29,4.73,30.55,6.52c10.49,1.83,21.11,1.8,31.57-0.34
		c10.5-2.14,20.48-5.98,30.22-10.36c2.27-1.02,4.21-2.76,6.35-4.21c-2.14-5.97-4.28-11.43-6.07-17.01
		c-3.19-9.94-5.6-20.09-8.11-30.22c-3.4-13.72-4.69-27.66-5.31-41.63c-0.44-9.82,0.38-19.73,1.09-29.57
		c0.92-12.77,3.76-25.18,8.2-37.2c1.98-5.37,4.26-10.62,6.26-15.99c5-13.41,12.71-25.24,21.63-36.25
		c5.29-6.53,11.35-12.44,17.22-18.47c1.65-1.69,4.01-2.67,5.75-4.3c2.22-2.09,6.02-2.29,7-5.89c0.1-0.35,1.02-0.81,1.4-0.7
		c2.24,0.65,3.36-1.26,4.95-2.04c1.63-0.8,3.16-1.8,4.78-2.63c2.47-1.26,4.99-2.45,7.85-3.84c-0.64-1.36-0.99-2.62-1.73-3.57
		c-2.47-3.14-5.02-6.23-7.66-9.24c-7.42-8.46-16.06-15.58-25.62-21.38c-9.03-5.48-18.25-10.88-27.96-14.95
		c-9.17-3.84-19.03-6.11-28.68-8.71c-12.35-3.32-25.03-4.75-37.79-4.72c-18.23,0.04-36.19,2.45-53.82,7.18
		c-11.05,2.96-21.77,6.82-32.29,11.28c-11.23,4.76-21.65,10.98-31.81,17.67c-4.28,2.82-8.56,5.7-12.46,9
		c-7.66,6.5-14.22,14.04-20.14,22.18c-4.61,6.35-9.77,12.33-14.16,18.82c-3.75,5.53-6.89,11.5-10.01,17.42
		c-0.8,1.51-1.88,1.37-3.24,1.73c0.42,0.97,0.78,1.82,1.21,2.82c-3.17,2.66-6.4,5.25-6.18,9.96c0.02,0.5-0.34,1.09-0.68,1.51
		c-1.59,1.97-3.23,3.89-4.96,5.96c1.37,2.31,0.62,4.3-0.6,6.66c-1.09,2.12-0.99,4.87-1.33,7.36c-0.25,1.84-0.36,3.7-0.55,5.56
		c-0.01,0.1-0.21,0.17-0.32,0.26c-1.11-0.28-2.21-0.57-3.32-0.85c1.9,2.17,2.78,4.27,2.35,6.99c-0.88,5.64-1.81,11.28-2.39,16.96
		c-0.83,8.09-2.31,16.14-1.29,24.35c0.4,3.23,0.16,6.53,0.31,9.79c0.15,3.13,0.27,6.27,0.7,9.37c0.42,3.07,1.4,6.07,1.82,9.14
		c2.17,16.19,6.14,31.95,11.03,47.51c0.56,1.77,0.48,3.75,0.62,4.9c2,4.73,3.77,8.93,5.07,13.11c-0.2,0.67-0.41,1.34-0.61,2.01
		c0.33,0.02,0.65,0.03,0.98,0.05C283,581.51,282.89,580.8,283.11,580.76z M644.89,474.95c-1.41,4.46-2.82,8.93-4.25,13.39
		c-0.69,2.16-1.43,4.3-2.17,6.44c-1.06,3.09-1.53,6.62-3.38,9.14c-2.2,3-3.95,5.7-3.25,9.51c0.07,0.37-0.19,0.83-0.37,1.21
		c-1.92,3.96-3.91,7.89-5.79,11.87c-3.53,7.49-7.77,14.53-12.45,21.35c-1.35,1.96-2.71,3.47-5.18,3.84c0.46,0.65,0.99,1.15,0.9,1.3
		c-1.59,2.79-2.41,6.25-5.82,7.59c-3.07,1.21-4.39,3.79-5.55,6.58c-0.36,0.88-0.71,2-1.42,2.45c-3.37,2.1-7.32,3.59-7.6,8.45
		c-0.01,0.11-0.15,0.26-0.27,0.3c-3.12,1.09-4.05,4.57-6.76,6.17c-1.19,0.7-2.7,1.79-2.96,2.96c-0.58,2.53-2.31,3.96-4.13,5.18
		c-2.65,1.78-4.12,4.15-5.04,7.37c1.81,2.92,3.57,6.03,5.6,8.96c3.24,4.67,6.65,9.22,10.04,13.78c0.76,1.02,1.74,1.87,2.66,2.76
		c2.33,2.24,4.95,4.25,6.97,6.75c2.41,2.98,5.92,5.09,6.62,9.58c0.24,1.55,3.24,2.68,4.98,4c1.23,0.93,3.03,1.61,3.59,2.84
		c1.45,3.2,4.65,4.45,6.91,6.64c4.16,4.02,9.15,7.23,13.97,10.51c6.59,4.48,13.03,9.22,20.6,12.12c3.01,1.15,5.12,0.9,7.09-1.64
		c6.73-8.69,13.91-17.07,20.2-26.08c11.57-16.57,21.43-34.15,29.6-52.68c5.26-11.93,10.13-24.03,13.63-36.56
		c4-14.32,7.1-28.83,8.72-43.7c1.66-15.27,0.73-30.35-1.81-45.3c-3.14-18.53-12-34.55-24.3-48.53c-8.46-9.62-18.6-17.36-30.17-23
		c-5.25-2.56-10.72-4.7-16.16-6.85c-1.76-0.7-3.75-1.49-6-0.09c0.29,3.06,0.52,6.13,0.89,9.18c0.28,2.37,1.44,4.87,0.94,7.03
		c-0.7,3.04-0.5,5.9-0.25,8.87c0.09,1.11-0.07,2.25-0.13,3.38c-0.14,2.55-0.39,5.09-0.4,7.64c-0.02,3.72,0.34,7.49-3.26,10.06
		c-0.51,0.36-0.68,1.19-1.15,2.05c0.78,0.52,1.43,0.96,2.51,1.69c-0.63,4.63-1.21,9.56-1.99,14.45
		C648.39,463.47,647.58,469.14,644.89,474.95z M524.15,638.32c-8.04,5.92-17.32,9.38-26.42,13.14c-3.16,1.31-6.43,2.58-9.77,3.19
		c-8.28,1.51-16.64,2.61-24.96,3.91c-9.02,1.41-18.04,0.45-26.96-0.55c-11.96-1.35-23.57-4.61-35-8.39
		c-14.73-4.87-28.83-11.08-41.95-19.44c-4.09-2.61-4.07-2.37-7.87,0.42c-5.88,4.3-11.86,8.47-17.91,12.52
		c-2.36,1.58-5.06,2.65-7.55,4.06c-2.59,1.47-2.7,2.35-1.03,4.71c0.98,1.38,2.57,2.82,2.61,4.28c0.14,5.05,2.92,7.6,6.53,8.72
		c0.4,1.26,0.42,2.2,0.89,2.71c2.84,3.02,5.82,5.91,8.69,8.92c1.78,1.86,3.39,3.82,6.03,4.64c1.01,0.31,1.86,1.29,2.66,2.1
		c2.4,2.42,4.53,5.16,7.15,7.31c5.83,4.78,11.86,9.32,17.87,13.89c11.77,8.95,24.56,16.22,37.82,22.68
		c4.49,2.19,9.1,4.13,13.57,6.36c10.52,5.25,21.62,9.08,33,11.65c8.46,1.91,16.79,4.63,25.58,5.12c9.13,0.51,18.23,1.86,27.36,1.91
		c9.82,0.05,19.6-0.81,29.32-2.97c8.25-1.83,16.39-3.89,24.3-6.79c4-1.47,7.9-3.26,11.74-5.13c1.77-0.86,3.13-2.7,4.94-3.28
		c3.72-1.2,7.04-2.97,10.24-5.16c1.94-1.33,4.26-2.11,6.32-3.3c1.22-0.7,2.29-1.68,3.37-2.59c0.76-0.64,1.35-1.47,2.14-2.06
		c3.5-2.57,7.04-5.09,11.23-8.1c-17-10.43-32.42-21.92-46.08-35.65c-13.78-13.85-25.4-29.37-35.66-46.44
		C532.13,633.31,528.4,635.64,524.15,638.32z M323.39,468.47c-0.43,2.68-1.51,5.45-1.11,8c0.48,3.07-0.27,5.55-1.48,7.82
		c0.51,1.69,1.34,3.07,1.28,4.41c-0.26,5.51,1.76,10.66,2.29,16.03c0.15,1.54,0.09,3.14,0.54,4.59c1.71,5.58,3.59,11.11,5.4,16.66
		c0.27,0.81,0.43,1.68,0.82,2.43c2.44,4.66,4.76,9.39,7.44,13.9c3.04,5.13,5.16,10.88,9.87,14.94c0.57,0.49,0.7,1.51,0.98,2.31
		c1.2,3.41,2.52,4.38,6.16,4.47c1.13,1.79,2.16,3.65,3.4,5.36c1.11,1.54,2.24,3.22,3.76,4.25c1.23,0.83,3.04,0.79,5.16,1.27
		c4.6-5.96,9.83-12.04,14.29-18.64c8.57-12.69,15.89-26.06,21.57-40.38c5.86-14.79,8.33-29.98,7.62-45.73
		c-0.35-7.79-2.19-15.29-6.34-22.05c-4.41-7.17-9.67-13.5-17.6-17.03c-8.33-3.72-16.94-5.24-26.15-4.45
		c-7.27,0.62-13.9,2.98-20.49,5.63c-2.11,0.85-4.22,2.61-5.48,4.51c-2.19,3.31-4.2,6.89-5.41,10.64
		C327.74,454.16,324.61,460.65,323.39,468.47z M567.02,557.44c0.99-1.4,1.95-2.83,2.99-4.19c8.96-11.77,16.28-24.47,22.25-38.02
		c7.64-17.36,14.19-35.04,17.03-53.89c1.41-9.33,3.12-18.68,3.62-28.07c0.71-13.5-1.17-26.83-5.22-39.79
		c-1.2-3.85-1.82-4.32-5.95-3.28c-7.2,1.81-14.3,4.02-20.88,7.49c-2.99,1.58-6.26,3.32-8.28,5.87c-3.96,5-7.32,10.52-10.57,16.04
		c-1.3,2.2-1.92,4.72-4.36,6.14c-0.64,0.37-1.14,1.29-1.37,2.05c-2.63,8.69-4.97,17.48-7.83,26.1c-3.93,11.87-4.41,24.35-6.76,36.49
		c-0.41,2.12,1.48,5.03,0.59,6.64c-1.32,2.4-0.33,4.53-0.29,6.52c0.12,5.94,1.68,11.75,1.7,17.8c0.02,7.79,2.26,15.38,3.95,22.94
		c1.45,6.52,4.01,12.79,6.12,19.31c0.6-0.07,1.24-0.15,1.87-0.23c0.88,1.38,1.76,2.76,3.02,4.75
		C561.58,564.38,564.1,561.15,567.02,557.44z"/>
	<path class="st3" d="M912.48,485.26c1.66-1.74,3.36-3.44,4.98-5.22c1.47-1.62,7.88-3.1,10-1.68c1.68,1.13,4.43,0.76,5.07,3.39
		c3.23,0.02,3.11,3.63,5.27,4.96c1.57,0.97,1.62,2.88,0.2,4.46c-0.45,0.5-1.28,1.16-1.18,1.55c0.71,2.7-1.01,4.73-1.87,6.9
		c-1.76,4.42-3.93,8.69-5.91,13.02c-0.33,0.72-0.97,1.57-0.81,2.19c0.68,2.63-0.69,4.46-2.26,6.11c-1.58,1.67-2.2,3.24-1.88,5.69
		c0.22,1.69-0.89,3.72-1.84,5.35c-1.09,1.87-1.48,3.91-2.21,5.85c-1.95,5.18-4.49,10.15-7,15.09c-0.52,1.02-1.93,1.58-3.19,2.55
		c0.43,0.48,0.85,0.95,1.66,1.86c-0.97,1.59-2.12,3.46-3.27,5.32c-0.07,0.11-0.31,0.18-0.32,0.27c-0.14,3.63-3.13,5.9-4.32,8.99
		c-6.55,17.03-14.54,33.35-23.88,49c-1.58,2.65-3.8,4.93-5.86,7.26c-1.07,1.2-2.46,2.11-3.83,3.25c1.11,2.29,0.09,4.27-1.65,6.22
		c-4.63,5.15-8.91,10.65-13.83,15.51c-3.51,3.47-6.68,7.26-10.72,10.34c-4.83,3.67-8.79,8.54-12.85,13.13
		c-6.28,7.09-13.1,13.56-20.6,19.33c-4.75,3.65-9.33,7.57-14.31,10.88c-4.14,2.76-8.73,4.85-13.16,7.18
		c-13.28,6.99-27.48,10.71-42.33,12.72c-15.34,2.07-30.18-0.24-45.08-3.27c-9.7-1.97-19.19-4.57-28.36-8.29
		c-2.96-1.2-5.04-0.5-7.3,1.57c-5.71,5.2-11.4,10.45-17.5,15.18c-5.28,4.1-11.04,7.6-16.69,11.2c-6.13,3.91-12.3,7.76-18.58,11.43
		c-21.84,12.76-45.12,21.6-70.35,24.42c-9.76,1.09-19.67,1.19-29.5,1.09c-21.79-0.23-42.87-4.65-63.48-11.6
		c-13.44-4.53-26.66-9.62-39.41-15.82c-16.91-8.22-32.9-18-47.66-29.64c-8.64-6.81-16.98-14.05-25.09-21.48
		c-13.56-12.43-25.17-26.59-35.68-41.67c-0.74-1.06-1.51-2.09-2.18-3.19c-1.09-1.8-2.52-1.85-4.43-1.4
		c-8.06,1.91-16.1,4.1-24.27,5.37c-11.43,1.77-22.95,3.08-34.56,3.01c-12.71-0.08-25.3-1.25-37.82-3.57
		c-12.84-2.39-25.37-5.76-37.45-10.7c-8.94-3.65-17.2-8.48-24.19-15.25c-3.37-3.27-6.07-6.85-5.37-12.04
		c0.18-1.34-0.3-2.85-0.76-4.19c-0.53-1.54-1.08-2.92,0.17-4.4c0.29-0.34,0.37-1.21,0.15-1.6c-1.55-2.67,0.19-5.34-0.05-8.01
		c-0.18-1.96,1.3-3.06,3.17-3.45c1.38-0.29,2.77-0.53,4.19-0.79c0.24-0.82,0.47-1.59,0.74-2.5c2.05,0.26,3.99,0.51,6.1,0.78
		c0-0.46,0-1.11,0-1.91c0.85,0,1.63,0,2.64,0c0.21-0.33,0.63-0.76,0.77-1.27c0.61-2.17,1.89-2.76,4.14-2.48
		c4.18,0.52,7.46,2.69,10.73,5.03c3.8,2.72,7.51,5.61,11.51,8.01c12.48,7.46,26.46,10.49,40.48,13.44
		c15.4,3.24,30.93,3.59,46.55,2.46c4.13-0.3,8.26-0.72,12.38-1.14c0.8-0.08,1.57-0.46,2.72-0.81c-0.57-1.4-0.96-2.58-1.5-3.69
		c-8.63-17.82-15.55-36.31-21.23-55.26c-4.43-14.82-8.15-29.85-9.71-45.26c-1.37-13.5-2.46-27.04-1.96-40.69
		c0.55-14.94,2.11-29.7,6.01-44.12c3.97-14.67,9.57-28.75,15.76-42.64c4.57-10.26,10.07-19.91,16.36-29.13
		c3.93-5.76,8.47-11.11,12.74-16.65c0.17-0.22,0.44-0.39,0.57-0.63c4.51-8.15,11.68-14.04,17.91-20.69
		c5.86-6.25,12.05-12.25,18.61-17.75c7.84-6.58,16.36-12.35,24.34-18.78c7.63-6.15,16.09-10.88,24.71-15.34
		c9-4.64,18.06-9.18,27.32-13.28c4.93-2.18,10.31-3.36,15.51-4.92c4.24-1.27,8.48-2.54,12.77-3.59c2.31-0.56,4.74-0.67,7.12-0.96
		c0.55-0.07,1.25,0.17,1.66-0.08c5.02-3.2,10.88-3.26,16.44-4.24c16.41-2.89,32.99-3.66,49.53-1.75
		c12.31,1.42,24.69,2.92,36.51,7.04c7.1,2.47,14.33,4.64,21.26,7.55c7.63,3.2,15.04,6.95,22.41,10.72
		c9.18,4.69,17.81,10.27,26.01,16.57c7.73,5.95,13.63,13.43,19.16,21.32c2.69,3.85,5.74,7.44,8.36,11.34
		c2.94,4.37,5.72,8.87,8.27,13.48c1.93,3.49,4.06,5.5,8.53,5.6c11.44,0.24,22.7,1.87,33.74,5.25c16.85,5.16,32.1,13.33,46.51,23.28
		c0.82,0.57,1.57,1.24,2.34,1.88c2.71,2.25,5.32,4.6,8.14,6.74c3.43,2.61,6.25,6.1,9.02,9.47c1.39,1.69,2.01,3.99,3.08,5.96
		c1.53,2.82,1.56,2.8,4.98,4.42c-1.83,1.08-1.02,2.32-0.28,3.56c2.2,3.65,4.41,7.29,6.62,10.93c1.57,2.6,1.58,3.18,0.1,7.55
		c1.48,1.07,3.84,1.67,3.52,4.29c3.48-0.56,1.57,2.83,2.81,3.97c0.22,0.2-0.36,1.26-0.66,2.21c4.09,3.42,5.28,8.75,6.65,13.92
		c1.83,6.89,3.31,13.86,3.73,21.01c0.49,8.11,1.41,16.2,0.39,24.34c-0.3,2.37,0.01,4.8-0.03,7.21c-0.05,3.85,0.19,7.74-0.3,11.53
		c-0.83,6.36-2.49,12.62-3.19,18.98c-1.13,10.19-5.24,19.61-7.07,29.59c-2.81,2.97-2.61,7.55-5.62,10.48
		c-0.72,0.7-0.89,2.04-1.16,3.13c-0.86,3.51-1.96,6.79-5.24,8.95c-0.65,0.43-0.91,2.02-0.75,2.98c0.54,3.26-0.49,5.7-3.24,7.47
		c-0.36,0.23-0.76,0.44-1.03,0.75c-0.27,0.31-0.68,0.85-0.57,1.09c1.57,3.6-3.4,5.55-2.24,9.02c0.63,1.9,0.1,3.5-0.89,5.24
		c-1.1,1.94-1.44,4.31-2.47,6.31c-5.17,9.95-10.48,19.78-17.26,28.83c-3.13,4.18-6.28,8.31-9.58,12.35
		c-1.4,1.71-2.28,3.84-3.59,5.64c-0.91,1.25-2.07,2.37-3.3,3.32c-1.17,0.9-1.82,1.75-2.23,3.32c-0.47,1.79-1.9,3.54-3.34,4.84
		c-4.23,3.84-7.03,8.89-11.18,12.78c-0.48,0.45-0.68,1.22-1.26,2.34c1.73,0.87,3.23,1.99,4.91,2.4c7.06,1.71,14.1,3.76,21.28,4.61
		c7.34,0.87,14.83,0.75,22.24,0.57c11.73-0.28,22.85-3.54,33.48-8.31c3.85-1.73,7.33-4.34,10.86-6.73
		c4.47-3.03,9.08-5.92,13.14-9.44c5.7-4.95,11.13-10.25,16.34-15.72c3.64-3.82,6.77-8.13,10.04-12.3
		c6.29-8.03,11.59-16.73,16.2-25.78c7.98-15.69,15.74-31.49,23.14-47.46c6.49-14.02,12.39-28.31,18.47-42.52
		c3.82-8.93,7.48-17.92,11.25-26.87c1.16-2.76,2.08-5.58,6.33-4.75c1.13,0.22,2.89-1.46,4.89-0.94
		C912.6,485.21,912.48,485.26,912.48,485.26z M297.6,567.58c0.86,1.64,1.76,3.27,2.58,4.93c3.91,7.94,7.64,15.97,11.78,23.79
		c1.89,3.57,3.64,7.38,6.53,10.17c2.37-0.74,4.39-1.1,6.15-1.98c5.56-2.81,11.03-5.81,16.52-8.76c3.49-1.87,3.62-2.46,1.05-5.22
		c-9.2-9.89-17.09-20.73-23.83-32.44c-8.06-14.01-13.65-28.97-17.51-44.6c-3.74-15.12-4.9-30.48-3.84-46
		c0.55-8.02,2.04-15.88,4.39-23.59c2.52-8.29,6.92-15.64,10.92-23.24c3.01-5.71,8.43-9.49,11.03-15.36c4.29-1.84,7.49-4.87,9.64-9
		c0.05-0.1,0.27-0.11,0.37-0.2c5.66-5.12,12.43-8.51,19.06-12.05c6.77-3.62,13.63-7.06,21.33-8.6c6.83-1.36,13.52-3.21,20.58-3.43
		c15.45-0.48,29.24,4.14,41.85,12.79c0.8,0.55,1.85,1.16,2.14,1.97c1.93,5.35,6.39,8.84,9.84,12.94c3.24,3.85,5.96,7.93,8.23,12.27
		c2.23,4.27,3.81,8.9,5.45,13.46c1.39,3.88,2.73,7.81,3.57,11.83c1.19,5.72,1.04,11.53,0.69,17.38c-0.38,6.48,0.49,13.07-2.53,19.19
		c-0.12,0.24-0.2,0.64-0.08,0.82c1.37,2.17-0.01,4.2-0.42,6.2c-2.05,9.77-4.52,19.42-8.82,28.5c-0.78,1.65-1.12,3.56-2.08,5.08
		c-1.37,2.17-1.46,5.34-4.31,6c0,1.22,0.39,2.45-0.07,3.12c-2.24,3.3-4.69,6.45-7.6,10.37c0.95,2.05-0.51,4.06-2.93,5.83
		c-0.84,0.61-1.19,1.88-1.76,2.86c-1.07,1.83-1.73,4.19-3.3,5.34c-1.75,1.29-2.6,2.78-3.34,4.61c-0.37,0.89-0.99,1.69-1.58,2.47
		c-4.37,5.73-10.62,9.67-14.58,15.88c-1.98,3.11-5.28,5.37-7.92,8.07c-1.43,1.46-1.26,2.72,0.57,3.84c1.33,0.82,2.89,1.3,4.2,2.15
		c8.73,5.67,18.45,9.24,28.29,12.08c9.98,2.88,20.29,4.73,30.55,6.52c10.49,1.83,21.11,1.8,31.57-0.34
		c10.5-2.14,20.48-5.98,30.22-10.36c2.27-1.02,4.21-2.76,6.35-4.21c-2.14-5.97-4.28-11.43-6.07-17.01
		c-3.19-9.94-5.6-20.09-8.11-30.22c-3.4-13.72-4.69-27.66-5.31-41.63c-0.44-9.82,0.38-19.73,1.09-29.57
		c0.92-12.77,3.76-25.18,8.2-37.2c1.98-5.37,4.26-10.62,6.26-15.99c5-13.41,12.71-25.24,21.63-36.25
		c5.29-6.53,11.35-12.44,17.22-18.47c1.65-1.69,4.01-2.67,5.75-4.3c2.22-2.09,6.02-2.29,7-5.89c0.1-0.35,1.02-0.81,1.4-0.7
		c2.24,0.65,3.36-1.26,4.95-2.04c1.63-0.8,3.16-1.8,4.78-2.63c2.47-1.26,4.99-2.45,7.85-3.84c-0.64-1.36-0.99-2.62-1.73-3.57
		c-2.47-3.14-5.02-6.23-7.66-9.24c-7.42-8.46-16.06-15.58-25.62-21.38c-9.03-5.48-18.25-10.88-27.96-14.95
		c-9.17-3.84-19.03-6.11-28.68-8.71c-12.35-3.32-25.03-4.75-37.79-4.72c-18.23,0.04-36.19,2.45-53.82,7.18
		c-11.05,2.96-21.77,6.82-32.29,11.28c-11.23,4.76-21.65,10.98-31.81,17.67c-4.28,2.82-8.56,5.7-12.46,9
		c-7.66,6.5-14.22,14.04-20.14,22.18c-4.61,6.35-9.77,12.33-14.16,18.82c-3.75,5.53-6.89,11.5-10.01,17.42
		c-0.8,1.51-1.88,1.37-3.24,1.73c0.42,0.97,0.78,1.82,1.21,2.82c-3.17,2.66-6.4,5.25-6.18,9.96c0.02,0.5-0.34,1.09-0.68,1.51
		c-1.59,1.97-3.23,3.89-4.96,5.96c1.37,2.31,0.62,4.3-0.6,6.66c-1.09,2.12-0.99,4.87-1.33,7.36c-0.25,1.84-0.36,3.7-0.55,5.56
		c-0.01,0.1-0.21,0.17-0.32,0.26c-1.11-0.28-2.21-0.57-3.32-0.85c1.9,2.17,2.78,4.27,2.35,6.99c-0.88,5.64-1.81,11.28-2.39,16.96
		c-0.83,8.09-2.31,16.14-1.29,24.35c0.4,3.23,0.16,6.53,0.31,9.79c0.15,3.13,0.27,6.27,0.7,9.37c0.42,3.07,1.4,6.07,1.82,9.14
		c2.17,16.19,6.14,31.95,11.03,47.51c0.56,1.77,0.48,3.75,0.62,4.9c2,4.73,3.77,8.93,5.07,13.11c-0.2,0.67-0.41,1.34-0.61,2.01
		c0.33,0.02,0.65,0.03,0.98,0.05C297.49,568.33,297.38,567.62,297.6,567.58z M659.38,461.77c-1.41,4.46-2.82,8.93-4.25,13.39
		c-0.69,2.16-1.43,4.3-2.17,6.44c-1.06,3.09-1.53,6.62-3.38,9.14c-2.2,3-3.95,5.7-3.25,9.51c0.07,0.37-0.19,0.83-0.37,1.21
		c-1.92,3.96-3.91,7.89-5.79,11.87c-3.53,7.49-7.77,14.53-12.45,21.35c-1.35,1.96-2.71,3.47-5.18,3.84c0.46,0.65,0.99,1.15,0.9,1.3
		c-1.59,2.79-2.41,6.25-5.82,7.59c-3.07,1.21-4.39,3.79-5.55,6.58c-0.36,0.88-0.71,2-1.42,2.45c-3.37,2.1-7.32,3.59-7.6,8.45
		c-0.01,0.11-0.15,0.26-0.27,0.3c-3.12,1.09-4.05,4.57-6.76,6.17c-1.19,0.7-2.7,1.79-2.96,2.96c-0.58,2.53-2.31,3.96-4.13,5.18
		c-2.65,1.78-4.12,4.15-5.04,7.37c1.81,2.92,3.57,6.03,5.6,8.96c3.24,4.67,6.65,9.22,10.04,13.78c0.76,1.02,1.74,1.87,2.65,2.76
		c2.33,2.24,4.95,4.25,6.97,6.75c2.41,2.98,5.92,5.09,6.62,9.58c0.24,1.55,3.24,2.68,4.98,4c1.23,0.93,3.03,1.61,3.59,2.84
		c1.45,3.2,4.65,4.45,6.91,6.64c4.16,4.02,9.15,7.23,13.97,10.51c6.59,4.48,13.03,9.22,20.6,12.12c3.01,1.15,5.12,0.9,7.09-1.64
		c6.73-8.69,13.91-17.07,20.2-26.08c11.57-16.57,21.43-34.15,29.6-52.68c5.26-11.93,10.13-24.03,13.63-36.56
		c4-14.32,7.1-28.83,8.72-43.7c1.66-15.27,0.73-30.35-1.81-45.3c-3.14-18.53-12-34.55-24.3-48.53c-8.46-9.62-18.6-17.36-30.17-23
		c-5.25-2.56-10.72-4.7-16.16-6.85c-1.76-0.7-3.75-1.49-6-0.09c0.29,3.06,0.52,6.13,0.89,9.18c0.28,2.37,1.44,4.87,0.94,7.03
		c-0.7,3.04-0.5,5.9-0.25,8.87c0.09,1.11-0.07,2.25-0.13,3.38c-0.14,2.55-0.39,5.09-0.4,7.64c-0.02,3.72,0.34,7.49-3.26,10.06
		c-0.51,0.36-0.68,1.19-1.15,2.05c0.78,0.52,1.43,0.96,2.51,1.69c-0.63,4.63-1.21,9.56-1.99,14.45
		C662.88,450.29,662.07,455.96,659.38,461.77z M538.64,625.14c-8.04,5.92-17.32,9.38-26.42,13.14c-3.16,1.31-6.43,2.58-9.77,3.19
		c-8.28,1.51-16.64,2.61-24.96,3.91c-9.02,1.41-18.04,0.45-26.96-0.55c-11.96-1.35-23.57-4.61-35-8.39
		c-14.73-4.87-28.83-11.08-41.95-19.44c-4.09-2.61-4.07-2.37-7.87,0.42c-5.88,4.3-11.86,8.47-17.91,12.52
		c-2.36,1.58-5.06,2.65-7.55,4.06c-2.59,1.47-2.7,2.35-1.03,4.71c0.98,1.38,2.57,2.82,2.61,4.28c0.14,5.05,2.92,7.6,6.53,8.72
		c0.4,1.26,0.42,2.2,0.89,2.71c2.84,3.02,5.82,5.91,8.69,8.92c1.78,1.86,3.39,3.82,6.03,4.64c1.01,0.31,1.86,1.29,2.66,2.1
		c2.4,2.42,4.53,5.16,7.15,7.31c5.83,4.78,11.86,9.32,17.87,13.89c11.77,8.95,24.56,16.22,37.82,22.68
		c4.49,2.19,9.1,4.13,13.57,6.36c10.52,5.25,21.62,9.08,33,11.65c8.46,1.91,16.79,4.63,25.58,5.12c9.13,0.51,18.23,1.86,27.36,1.91
		c9.82,0.05,19.6-0.81,29.32-2.97c8.25-1.83,16.39-3.89,24.3-6.79c4-1.47,7.9-3.26,11.74-5.13c1.77-0.86,3.13-2.7,4.94-3.28
		c3.72-1.2,7.04-2.97,10.24-5.16c1.94-1.33,4.26-2.11,6.32-3.3c1.22-0.7,2.29-1.68,3.37-2.59c0.76-0.64,1.35-1.47,2.14-2.06
		c3.5-2.57,7.04-5.09,11.23-8.1c-17-10.43-32.42-21.92-46.08-35.65c-13.78-13.85-25.4-29.37-35.66-46.44
		C546.62,620.13,542.89,622.46,538.64,625.14z M337.88,455.29c-0.43,2.68-1.51,5.45-1.11,8c0.48,3.07-0.27,5.55-1.48,7.82
		c0.51,1.69,1.34,3.07,1.28,4.41c-0.26,5.51,1.76,10.66,2.29,16.03c0.15,1.54,0.09,3.14,0.54,4.59c1.71,5.58,3.59,11.11,5.4,16.66
		c0.27,0.81,0.43,1.68,0.82,2.43c2.44,4.66,4.76,9.39,7.44,13.9c3.04,5.13,5.16,10.88,9.87,14.94c0.57,0.49,0.7,1.51,0.98,2.31
		c1.2,3.41,2.52,4.38,6.16,4.47c1.13,1.79,2.16,3.65,3.4,5.36c1.11,1.54,2.24,3.22,3.76,4.25c1.23,0.83,3.04,0.79,5.16,1.27
		c4.6-5.96,9.83-12.04,14.29-18.64c8.57-12.69,15.89-26.06,21.57-40.38c5.86-14.79,8.33-29.98,7.62-45.73
		c-0.35-7.79-2.19-15.29-6.34-22.05c-4.41-7.17-9.67-13.5-17.6-17.03c-8.33-3.72-16.94-5.24-26.15-4.45
		c-7.27,0.62-13.9,2.98-20.49,5.63c-2.11,0.85-4.22,2.61-5.48,4.51c-2.19,3.31-4.2,6.89-5.41,10.64
		C342.23,440.98,339.1,447.47,337.88,455.29z M581.51,544.27c0.99-1.4,1.95-2.83,2.99-4.19c8.96-11.77,16.28-24.47,22.25-38.02
		c7.64-17.36,14.19-35.04,17.03-53.89c1.41-9.33,3.12-18.68,3.62-28.07c0.71-13.5-1.17-26.83-5.22-39.79
		c-1.2-3.85-1.82-4.32-5.95-3.28c-7.2,1.81-14.3,4.02-20.88,7.49c-2.99,1.58-6.26,3.32-8.28,5.87c-3.96,5-7.32,10.52-10.57,16.04
		c-1.3,2.2-1.92,4.72-4.36,6.14c-0.64,0.37-1.14,1.29-1.37,2.05c-2.63,8.69-4.97,17.48-7.83,26.1c-3.93,11.87-4.41,24.35-6.76,36.49
		c-0.41,2.12,1.48,5.03,0.59,6.64c-1.32,2.4-0.33,4.53-0.29,6.52c0.12,5.94,1.68,11.75,1.7,17.8c0.02,7.79,2.26,15.38,3.95,22.94
		c1.45,6.52,4.01,12.79,6.12,19.31c0.6-0.07,1.24-0.15,1.87-0.23c0.88,1.38,1.76,2.76,3.02,4.75
		C576.07,551.2,578.59,547.97,581.51,544.27z"/>
	<path class="st4" d="M552.31,900.81c0.23,0.01-0.14,0-0.17-0.04c0.08,0.67,0.19,1.38,0.3,2.09c-0.33-0.02-0.65-0.03-0.98-0.05
		C551.67,902.14,551.88,901.47,552.31,900.81z"/>
</g>
</svg>
