<?xml version="1.0" encoding="utf-8"?>
<!-- Generator: Adobe Adobe Illustrator 24.2.0, SVG Export Plug-In . SVG Version: 6.00 Build 0)  -->
<svg version="1.1" id="Layer_1" xmlns="http://www.w3.org/2000/svg" xmlns:xlink="http://www.w3.org/1999/xlink" x="0px" y="0px"
	 width="544px" height="410px" viewBox="0 0 544 410" style="enable-background:new 0 0 544 410;" xml:space="preserve">
<style type="text/css">
	.st0{fill:#E0AE8B;}
	.st1{fill:#342F2C;}
	.st2{fill:#FFFFFF;}
</style>
<path class="st0" d="M505.91,184.26c1.02-1.07,2.07-2.11,3.06-3.2c0.91-0.99,4.84-1.91,6.14-1.03c1.03,0.69,2.72,0.46,3.12,2.08
	c1.98,0.01,1.91,2.23,3.24,3.05c0.96,0.6,0.99,1.77,0.12,2.74c-0.27,0.31-0.79,0.71-0.72,0.95c0.44,1.66-0.62,2.9-1.15,4.24
	c-1.08,2.72-2.41,5.33-3.63,8c-0.2,0.44-0.59,0.96-0.5,1.34c0.42,1.62-0.43,2.74-1.39,3.76c-0.97,1.02-1.35,1.99-1.15,3.49
	c0.14,1.04-0.55,2.29-1.13,3.29c-0.67,1.15-0.91,2.4-1.36,3.59c-1.2,3.18-2.76,6.23-4.3,9.27c-0.32,0.63-1.19,0.97-1.96,1.57
	c0.27,0.3,0.52,0.58,1.02,1.14c-0.6,0.97-1.3,2.12-2.01,3.27c-0.04,0.07-0.19,0.11-0.2,0.17c-0.09,2.23-1.92,3.63-2.65,5.52
	c-4.02,10.46-8.93,20.48-14.67,30.1c-0.97,1.63-2.33,3.03-3.6,4.46c-0.66,0.74-1.51,1.29-2.35,2c0.68,1.41,0.06,2.63-1.02,3.82
	c-2.84,3.17-5.48,6.54-8.49,9.52c-2.16,2.13-4.1,4.46-6.58,6.35c-2.96,2.25-5.4,5.25-7.89,8.07c-3.85,4.36-8.05,8.33-12.65,11.87
	c-2.92,2.24-5.73,4.65-8.79,6.68c-2.54,1.69-5.36,2.98-8.08,4.41c-8.16,4.3-16.88,6.58-26,7.81c-9.42,1.27-18.54-0.15-27.69-2.01
	c-5.96-1.21-11.79-2.81-17.42-5.09c-1.82-0.74-3.1-0.3-4.49,0.96c-3.51,3.19-7,6.42-10.75,9.32c-3.24,2.52-6.78,4.67-10.25,6.88
	c-3.76,2.4-7.56,4.77-11.41,7.02c-13.42,7.84-27.72,13.27-43.21,15c-5.99,0.67-12.08,0.73-18.12,0.67
	c-13.38-0.14-26.33-2.86-38.99-7.12c-8.26-2.78-16.37-5.91-24.21-9.71c-10.38-5.05-20.21-11.06-29.28-18.2
	c-5.31-4.18-10.43-8.63-15.41-13.19c-8.33-7.63-15.46-16.33-21.91-25.6c-0.45-0.65-0.93-1.29-1.34-1.96
	c-0.67-1.11-1.55-1.14-2.72-0.86c-4.95,1.17-9.89,2.52-14.91,3.3c-7.02,1.08-14.1,1.89-21.23,1.85c-7.81-0.05-15.54-0.76-23.23-2.2
	c-7.89-1.47-15.58-3.54-23-6.57c-5.49-2.24-10.56-5.21-14.85-9.37c-2.07-2.01-3.73-4.21-3.3-7.4c0.11-0.83-0.18-1.75-0.47-2.57
	c-0.33-0.95-0.67-1.8,0.11-2.7c0.18-0.21,0.23-0.74,0.09-0.98c-0.95-1.64,0.12-3.28-0.03-4.92c-0.11-1.21,0.8-1.88,1.95-2.12
	c0.85-0.18,1.7-0.32,2.57-0.49c0.15-0.5,0.29-0.98,0.45-1.53c1.26,0.16,2.45,0.31,3.75,0.48c0-0.28,0-0.68,0-1.17c0.52,0,1,0,1.62,0
	c0.13-0.2,0.39-0.47,0.47-0.78c0.37-1.34,1.16-1.69,2.54-1.52c2.57,0.32,4.58,1.65,6.59,3.09c2.33,1.67,4.61,3.45,7.07,4.92
	c7.67,4.58,16.25,6.45,24.86,8.26c9.46,1.99,19,2.2,28.59,1.51c2.54-0.18,5.07-0.44,7.61-0.7c0.49-0.05,0.97-0.28,1.67-0.49
	c-0.35-0.86-0.59-1.58-0.92-2.27c-5.3-10.95-9.55-22.3-13.04-33.94c-2.72-9.1-5.01-18.34-5.96-27.8c-0.84-8.29-1.51-16.61-1.2-24.99
	c0.34-9.18,1.3-18.24,3.69-27.1c2.44-9.01,5.88-17.66,9.68-26.19c2.81-6.3,6.19-12.23,10.05-17.89c2.41-3.54,5.2-6.83,7.82-10.22
	c0.11-0.14,0.27-0.24,0.35-0.39c2.77-5.01,7.17-8.62,11-12.71c3.6-3.84,7.4-7.52,11.43-10.9c4.82-4.04,10.05-7.59,14.95-11.54
	c4.69-3.78,9.88-6.69,15.18-9.42c5.53-2.85,11.09-5.64,16.78-8.16c3.03-1.34,6.33-2.07,9.52-3.02c2.6-0.78,5.21-1.56,7.85-2.21
	c1.42-0.35,2.91-0.41,4.37-0.59c0.34-0.04,0.77,0.11,1.02-0.05c3.09-1.97,6.68-2,10.1-2.61c10.08-1.78,20.26-2.25,30.42-1.07
	c7.56,0.88,15.16,1.79,22.43,4.32c4.36,1.52,8.8,2.85,13.06,4.64c4.68,1.97,9.23,4.27,13.76,6.58c5.64,2.88,10.94,6.31,15.97,10.18
	c4.75,3.65,8.37,8.25,11.77,13.1c1.65,2.36,3.53,4.57,5.13,6.96c1.8,2.69,3.51,5.45,5.08,8.28c1.18,2.14,2.5,3.38,5.24,3.44
	c7.03,0.15,13.94,1.15,20.73,3.23c10.35,3.17,19.72,8.19,28.57,14.3c0.5,0.35,0.97,0.76,1.44,1.15c1.67,1.38,3.27,2.82,5,4.14
	c2.11,1.61,3.84,3.75,5.54,5.82c0.85,1.04,1.24,2.45,1.89,3.66c0.94,1.73,0.96,1.72,3.06,2.72c-1.13,0.66-0.63,1.43-0.17,2.19
	c1.35,2.24,2.71,4.48,4.06,6.72c0.96,1.59,0.97,1.95,0.06,4.63c0.91,0.66,2.36,1.02,2.16,2.63c2.14-0.34,0.97,1.74,1.72,2.44
	c0.13,0.12-0.22,0.77-0.41,1.36c2.51,2.1,3.24,5.38,4.08,8.55c1.12,4.23,2.03,8.51,2.29,12.91c0.3,4.98,0.86,9.95,0.24,14.95
	c-0.18,1.45,0,2.95-0.02,4.43c-0.03,2.36,0.12,4.75-0.19,7.08c-0.51,3.91-1.53,7.75-1.96,11.66c-0.69,6.26-3.22,12.04-4.34,18.18
	c-1.73,1.83-1.6,4.64-3.45,6.43c-0.44,0.43-0.55,1.25-0.71,1.92c-0.53,2.15-1.2,4.17-3.22,5.5c-0.4,0.26-0.56,1.24-0.46,1.83
	c0.33,2.01-0.3,3.5-1.99,4.59c-0.22,0.14-0.46,0.27-0.63,0.46c-0.17,0.19-0.42,0.52-0.35,0.67c0.96,2.21-2.09,3.41-1.38,5.54
	c0.39,1.17,0.06,2.15-0.55,3.22c-0.68,1.19-0.88,2.65-1.52,3.87c-3.17,6.11-6.44,12.15-10.6,17.71c-1.92,2.57-3.86,5.11-5.88,7.59
	c-0.86,1.05-1.4,2.36-2.21,3.46c-0.56,0.77-1.27,1.46-2.02,2.04c-0.72,0.55-1.12,1.07-1.37,2.04c-0.29,1.1-1.17,2.17-2.05,2.97
	c-2.6,2.36-4.32,5.46-6.87,7.85c-0.3,0.28-0.42,0.75-0.78,1.44c1.06,0.53,1.99,1.22,3.02,1.47c4.34,1.05,8.66,2.31,13.07,2.83
	c4.51,0.53,9.11,0.46,13.66,0.35c7.2-0.17,14.04-2.17,20.56-5.1c2.37-1.06,4.5-2.67,6.67-4.13c2.74-1.86,5.58-3.64,8.07-5.8
	c3.5-3.04,6.84-6.3,10.04-9.66c2.23-2.35,4.16-4.99,6.16-7.55c3.86-4.93,7.12-10.28,9.95-15.83c4.9-9.63,9.67-19.34,14.21-29.15
	c3.99-8.61,7.61-17.39,11.34-26.12c2.35-5.48,4.6-11.01,6.91-16.51c0.71-1.7,1.28-3.43,3.89-2.92c0.69,0.14,1.77-0.89,3-0.58
	C505.98,184.23,505.91,184.26,505.91,184.26z M128.24,234.82c0.53,1.01,1.08,2.01,1.59,3.03c2.4,4.88,4.69,9.81,7.24,14.61
	c1.16,2.19,2.24,4.53,4.01,6.24c1.46-0.46,2.7-0.67,3.77-1.22c3.42-1.73,6.78-3.57,10.15-5.38c2.14-1.15,2.23-1.51,0.65-3.21
	c-5.65-6.07-10.5-12.73-14.64-19.93c-4.95-8.61-8.38-17.79-10.76-27.4c-2.3-9.28-3.01-18.72-2.36-28.25
	c0.34-4.93,1.25-9.75,2.7-14.49c1.55-5.09,4.25-9.61,6.71-14.27c1.85-3.51,5.18-5.83,6.78-9.44c2.64-1.13,4.6-2.99,5.92-5.53
	c0.03-0.06,0.16-0.07,0.23-0.12c3.47-3.14,7.64-5.22,11.71-7.4c4.16-2.23,8.37-4.34,13.1-5.28c4.2-0.84,8.31-1.97,12.64-2.11
	c9.49-0.29,17.96,2.54,25.7,7.86c0.49,0.34,1.14,0.71,1.32,1.21c1.18,3.29,3.93,5.43,6.05,7.95c1.99,2.36,3.66,4.87,5.06,7.54
	c1.37,2.62,2.34,5.47,3.34,8.27c0.85,2.38,1.68,4.8,2.19,7.26c0.73,3.51,0.64,7.08,0.42,10.67c-0.24,3.98,0.3,8.03-1.55,11.79
	c-0.07,0.15-0.12,0.39-0.05,0.5c0.84,1.33,0,2.58-0.26,3.81c-1.26,6-2.77,11.93-5.42,17.5c-0.48,1.02-0.69,2.18-1.28,3.12
	c-0.84,1.33-0.9,3.28-2.65,3.68c0,0.75,0.24,1.51-0.04,1.92c-1.37,2.03-2.88,3.96-4.67,6.37c0.58,1.26-0.32,2.49-1.8,3.58
	c-0.51,0.38-0.73,1.16-1.08,1.76c-0.66,1.12-1.07,2.57-2.02,3.28c-1.08,0.79-1.59,1.71-2.05,2.83c-0.22,0.55-0.61,1.04-0.97,1.52
	c-2.68,3.52-6.52,5.94-8.96,9.76c-1.22,1.91-3.24,3.3-4.87,4.96c-0.88,0.9-0.77,1.67,0.35,2.36c0.82,0.51,1.77,0.8,2.58,1.32
	c5.36,3.48,11.33,5.68,17.38,7.42c6.13,1.77,12.46,2.91,18.76,4.01c6.44,1.13,12.96,1.1,19.39-0.21c6.45-1.31,12.58-3.68,18.56-6.36
	c1.39-0.63,2.58-1.7,3.9-2.59c-1.32-3.67-2.63-7.02-3.73-10.45c-1.96-6.1-3.44-12.34-4.98-18.56c-2.09-8.43-2.88-16.99-3.26-25.57
	c-0.27-6.03,0.23-12.12,0.67-18.16c0.57-7.84,2.31-15.47,5.04-22.85c1.22-3.3,2.61-6.53,3.84-9.82c3.07-8.24,7.81-15.5,13.28-22.26
	c3.25-4.01,6.97-7.64,10.57-11.35c1.01-1.04,2.47-1.64,3.53-2.64c1.37-1.28,3.7-1.41,4.3-3.62c0.06-0.22,0.62-0.5,0.86-0.43
	c1.38,0.4,2.06-0.77,3.04-1.25c1-0.49,1.94-1.11,2.93-1.61c1.52-0.77,3.06-1.5,4.82-2.36c-0.4-0.84-0.61-1.61-1.06-2.19
	c-1.52-1.93-3.09-3.83-4.71-5.67c-4.56-5.19-9.87-9.57-15.74-13.13c-5.55-3.37-11.21-6.68-17.18-9.18
	c-5.63-2.36-11.69-3.76-17.62-5.35c-7.59-2.04-15.37-2.92-23.21-2.9c-11.2,0.02-22.23,1.5-33.06,4.41
	c-6.79,1.82-13.37,4.19-19.83,6.93c-6.9,2.92-13.3,6.74-19.54,10.85c-2.63,1.73-5.26,3.5-7.65,5.53
	c-4.71,3.99-8.74,8.63-12.37,13.62c-2.83,3.9-6,7.57-8.7,11.56c-2.3,3.4-4.23,7.06-6.15,10.7c-0.49,0.93-1.15,0.84-1.99,1.06
	c0.26,0.6,0.48,1.12,0.75,1.73c-1.94,1.63-3.93,3.23-3.8,6.12c0.01,0.3-0.21,0.67-0.42,0.93c-0.97,1.21-1.98,2.39-3.05,3.66
	c0.84,1.42,0.38,2.64-0.37,4.09c-0.67,1.3-0.61,2.99-0.81,4.52c-0.15,1.13-0.22,2.28-0.34,3.41c-0.01,0.06-0.13,0.11-0.19,0.16
	c-0.68-0.17-1.36-0.35-2.04-0.52c1.17,1.33,1.71,2.62,1.45,4.29c-0.54,3.46-1.11,6.93-1.47,10.41c-0.51,4.97-1.42,9.91-0.79,14.96
	c0.25,1.98,0.1,4.01,0.19,6.02c0.09,1.92,0.16,3.85,0.43,5.76c0.26,1.89,0.86,3.73,1.12,5.62c1.33,9.94,3.77,19.62,6.77,29.18
	c0.34,1.09,0.3,2.3,0.38,3.01c1.23,2.91,2.32,5.48,3.12,8.05c-0.13,0.41-0.25,0.82-0.38,1.23c0.2,0.01,0.4,0.02,0.6,0.03
	C128.18,235.28,128.11,234.84,128.24,234.82z M350.45,169.83c-0.87,2.74-1.73,5.49-2.61,8.22c-0.43,1.32-0.88,2.64-1.33,3.95
	c-0.65,1.9-0.94,4.07-2.08,5.61c-1.35,1.84-2.43,3.5-2,5.84c0.04,0.23-0.11,0.51-0.23,0.74c-1.18,2.43-2.4,4.84-3.55,7.29
	c-2.17,4.6-4.77,8.92-7.65,13.11c-0.83,1.2-1.67,2.13-3.18,2.36c0.28,0.4,0.61,0.7,0.55,0.8c-0.98,1.72-1.48,3.84-3.58,4.66
	c-1.89,0.74-2.7,2.33-3.41,4.04c-0.22,0.54-0.44,1.23-0.87,1.5c-2.07,1.29-4.49,2.2-4.67,5.19c0,0.07-0.09,0.16-0.16,0.18
	c-1.92,0.67-2.49,2.81-4.15,3.79c-0.73,0.43-1.66,1.1-1.82,1.82c-0.36,1.55-1.42,2.43-2.53,3.18c-1.63,1.09-2.53,2.55-3.09,4.53
	c1.11,1.79,2.19,3.71,3.44,5.5c1.99,2.87,4.08,5.67,6.17,8.47c0.46,0.62,1.07,1.15,1.63,1.69c1.43,1.38,3.04,2.61,4.28,4.14
	c1.48,1.83,3.64,3.13,4.06,5.88c0.15,0.95,1.99,1.65,3.06,2.45c0.76,0.57,1.86,0.99,2.21,1.75c0.89,1.96,2.86,2.73,4.24,4.08
	c2.55,2.47,5.62,4.44,8.58,6.46c4.05,2.75,8,5.66,12.65,7.44c1.85,0.71,3.15,0.55,4.36-1.01c4.14-5.34,8.54-10.49,12.41-16.02
	c7.11-10.18,13.17-20.98,18.18-32.36c3.23-7.33,6.22-14.76,8.37-22.46c2.46-8.79,4.36-17.71,5.35-26.84
	c1.02-9.38,0.45-18.64-1.11-27.83c-1.93-11.38-7.37-21.22-14.93-29.81c-5.2-5.91-11.42-10.66-18.53-14.13
	c-3.23-1.57-6.58-2.89-9.93-4.21c-1.08-0.43-2.3-0.91-3.68-0.05c0.18,1.88,0.32,3.76,0.55,5.64c0.17,1.45,0.88,2.99,0.58,4.32
	c-0.43,1.87-0.3,3.62-0.16,5.45c0.06,0.68-0.05,1.38-0.08,2.07c-0.08,1.56-0.24,3.13-0.25,4.69c-0.01,2.29,0.21,4.6-2,6.18
	c-0.31,0.22-0.42,0.73-0.71,1.26c0.48,0.32,0.88,0.59,1.54,1.04c-0.39,2.85-0.74,5.87-1.22,8.87
	C352.6,162.78,352.11,166.26,350.45,169.83z M276.3,270.17c-4.94,3.64-10.64,5.76-16.23,8.07c-1.94,0.8-3.95,1.58-6,1.96
	c-5.09,0.93-10.22,1.6-15.33,2.4c-5.54,0.87-11.08,0.28-16.56-0.34c-7.35-0.83-14.47-2.83-21.5-5.15
	c-9.05-2.99-17.71-6.81-25.77-11.94c-2.51-1.6-2.5-1.45-4.84,0.26c-3.61,2.64-7.28,5.2-11,7.69c-1.45,0.97-3.11,1.63-4.64,2.5
	c-1.59,0.9-1.66,1.44-0.63,2.89c0.6,0.85,1.58,1.73,1.61,2.63c0.09,3.1,1.79,4.67,4.01,5.35c0.24,0.77,0.26,1.35,0.55,1.66
	c1.74,1.86,3.58,3.63,5.33,5.48c1.09,1.14,2.08,2.34,3.7,2.85c0.62,0.19,1.14,0.79,1.63,1.29c1.48,1.49,2.79,3.17,4.39,4.49
	c3.58,2.94,7.29,5.73,10.98,8.53c7.23,5.5,15.08,9.96,23.23,13.93c2.76,1.34,5.59,2.54,8.33,3.91c6.46,3.23,13.28,5.57,20.27,7.15
	c5.19,1.17,10.31,2.85,15.71,3.15c5.61,0.31,11.2,1.14,16.8,1.17c6.03,0.03,12.04-0.5,18.01-1.82c5.07-1.12,10.06-2.39,14.92-4.17
	c2.46-0.9,4.85-2,7.21-3.15c1.08-0.53,1.92-1.66,3.03-2.02c2.28-0.74,4.32-1.82,6.29-3.17c1.19-0.82,2.62-1.3,3.88-2.02
	c0.75-0.43,1.4-1.03,2.07-1.59c0.46-0.39,0.83-0.91,1.32-1.26c2.15-1.58,4.32-3.12,6.9-4.98c-10.44-6.41-19.91-13.47-28.31-21.9
	c-8.46-8.51-15.6-18.04-21.9-28.52C281.19,267.09,278.9,268.53,276.3,270.17z M152.99,165.85c-0.26,1.64-0.93,3.35-0.68,4.91
	c0.3,1.88-0.16,3.41-0.91,4.8c0.32,1.04,0.82,1.88,0.78,2.71c-0.16,3.39,1.08,6.55,1.4,9.85c0.09,0.94,0.06,1.93,0.33,2.82
	c1.05,3.43,2.2,6.82,3.32,10.23c0.16,0.5,0.26,1.03,0.5,1.49c1.5,2.86,2.92,5.76,4.57,8.54c1.87,3.15,3.17,6.68,6.06,9.17
	c0.35,0.3,0.43,0.93,0.6,1.42c0.74,2.1,1.55,2.69,3.79,2.75c0.69,1.1,1.33,2.24,2.09,3.29c0.68,0.94,1.38,1.98,2.31,2.61
	c0.75,0.51,1.87,0.49,3.17,0.78c2.83-3.66,6.04-7.4,8.78-11.45c5.26-7.8,9.76-16,13.25-24.8c3.6-9.08,5.12-18.41,4.68-28.09
	c-0.22-4.78-1.34-9.39-3.9-13.54c-2.71-4.41-5.94-8.29-10.81-10.46c-5.12-2.28-10.4-3.22-16.06-2.73
	c-4.46,0.38-8.54,1.83-12.58,3.46c-1.3,0.52-2.59,1.6-3.36,2.77c-1.34,2.03-2.58,4.23-3.32,6.54
	C155.65,157.06,153.73,161.05,152.99,165.85z M302.63,220.5c0.61-0.86,1.2-1.74,1.84-2.57c5.51-7.23,10-15.03,13.66-23.35
	c4.69-10.66,8.72-21.52,10.46-33.1c0.86-5.73,1.92-11.47,2.22-17.24c0.44-8.29-0.72-16.48-3.21-24.44
	c-0.74-2.37-1.12-2.66-3.65-2.02c-4.42,1.11-8.78,2.47-12.83,4.6c-1.84,0.97-3.84,2.04-5.09,3.61c-2.44,3.07-4.5,6.46-6.49,9.85
	c-0.8,1.35-1.18,2.9-2.68,3.77c-0.4,0.23-0.7,0.79-0.84,1.26c-1.61,5.34-3.05,10.74-4.81,16.03c-2.41,7.29-2.71,14.96-4.15,22.41
	c-0.25,1.3,0.91,3.09,0.36,4.08c-0.81,1.47-0.2,2.78-0.18,4.01c0.08,3.65,1.03,7.22,1.04,10.94c0.01,4.78,1.39,9.44,2.42,14.09
	c0.89,4,2.46,7.86,3.76,11.86c0.37-0.05,0.76-0.09,1.15-0.14c0.54,0.85,1.08,1.69,1.86,2.92
	C299.29,224.76,300.83,222.77,302.63,220.5z"/>
<path class="st1" d="M514.81,176.16c1.02-1.07,2.07-2.11,3.06-3.2c0.91-0.99,4.84-1.91,6.14-1.03c1.03,0.69,2.72,0.46,3.12,2.08
	c1.98,0.01,1.91,2.23,3.24,3.05c0.96,0.6,0.99,1.77,0.12,2.74c-0.27,0.31-0.79,0.71-0.72,0.95c0.44,1.66-0.62,2.9-1.15,4.24
	c-1.08,2.72-2.41,5.33-3.63,8c-0.2,0.44-0.59,0.96-0.5,1.34c0.42,1.62-0.43,2.74-1.39,3.76c-0.97,1.02-1.35,1.99-1.15,3.49
	c0.14,1.04-0.55,2.29-1.13,3.29c-0.67,1.15-0.91,2.4-1.36,3.59c-1.2,3.18-2.76,6.23-4.3,9.27c-0.32,0.63-1.19,0.97-1.96,1.57
	c0.27,0.3,0.52,0.58,1.02,1.14c-0.6,0.97-1.3,2.12-2.01,3.27c-0.04,0.07-0.19,0.11-0.2,0.17c-0.09,2.23-1.92,3.63-2.65,5.52
	c-4.02,10.46-8.93,20.48-14.67,30.1c-0.97,1.63-2.33,3.03-3.6,4.46c-0.66,0.74-1.51,1.29-2.35,2c0.68,1.41,0.06,2.63-1.02,3.82
	c-2.84,3.17-5.48,6.54-8.49,9.52c-2.16,2.13-4.1,4.46-6.58,6.35c-2.96,2.25-5.4,5.25-7.89,8.07c-3.85,4.36-8.05,8.33-12.65,11.87
	c-2.92,2.24-5.73,4.65-8.79,6.68c-2.54,1.69-5.36,2.98-8.08,4.41c-8.16,4.3-16.88,6.58-26,7.81c-9.42,1.27-18.54-0.15-27.69-2.01
	c-5.96-1.21-11.79-2.81-17.42-5.09c-1.82-0.74-3.1-0.3-4.49,0.96c-3.51,3.19-7,6.42-10.75,9.32c-3.24,2.52-6.78,4.67-10.25,6.88
	c-3.76,2.4-7.56,4.77-11.41,7.02c-13.42,7.84-27.72,13.27-43.21,15c-5.99,0.67-12.08,0.73-18.12,0.67
	c-13.38-0.14-26.33-2.86-38.99-7.12c-8.26-2.78-16.37-5.91-24.21-9.71c-10.38-5.05-20.21-11.06-29.28-18.2
	c-5.31-4.18-10.43-8.63-15.41-13.19c-8.33-7.63-15.46-16.33-21.91-25.6c-0.45-0.65-0.93-1.29-1.34-1.96
	c-0.67-1.11-1.55-1.14-2.72-0.86c-4.95,1.17-9.89,2.52-14.91,3.3c-7.02,1.08-14.1,1.89-21.23,1.85c-7.81-0.05-15.54-0.76-23.23-2.2
	c-7.89-1.47-15.58-3.54-23-6.57c-5.49-2.24-10.56-5.21-14.85-9.37c-2.07-2.01-3.73-4.21-3.3-7.4c0.11-0.83-0.18-1.75-0.47-2.57
	c-0.33-0.95-0.67-1.8,0.11-2.7c0.18-0.21,0.23-0.74,0.09-0.98c-0.95-1.64,0.12-3.28-0.03-4.92c-0.11-1.21,0.8-1.88,1.95-2.12
	c0.85-0.18,1.7-0.32,2.57-0.49c0.15-0.5,0.29-0.98,0.45-1.53c1.26,0.16,2.45,0.31,3.75,0.48c0-0.28,0-0.68,0-1.17c0.52,0,1,0,1.62,0
	c0.13-0.2,0.39-0.47,0.47-0.78c0.37-1.34,1.16-1.69,2.54-1.52c2.57,0.32,4.58,1.65,6.59,3.09c2.33,1.67,4.61,3.45,7.07,4.92
	c7.67,4.58,16.25,6.45,24.86,8.26c9.46,1.99,19,2.2,28.59,1.51c2.54-0.18,5.07-0.44,7.61-0.7c0.49-0.05,0.97-0.28,1.67-0.49
	c-0.35-0.86-0.59-1.58-0.92-2.27c-5.3-10.95-9.55-22.3-13.04-33.94c-2.72-9.1-5.01-18.34-5.96-27.8c-0.84-8.29-1.51-16.61-1.2-24.99
	c0.34-9.18,1.3-18.24,3.69-27.1c2.44-9.01,5.88-17.66,9.68-26.19c2.81-6.3,6.19-12.23,10.05-17.89c2.41-3.54,5.2-6.83,7.82-10.22
	c0.11-0.14,0.27-0.24,0.35-0.39c2.77-5.01,7.17-8.62,11-12.71c3.6-3.84,7.4-7.52,11.43-10.9c4.82-4.04,10.05-7.59,14.95-11.54
	c4.69-3.78,9.88-6.69,15.18-9.42c5.53-2.85,11.09-5.64,16.78-8.16c3.03-1.34,6.33-2.07,9.52-3.02c2.6-0.78,5.21-1.56,7.85-2.21
	c1.42-0.35,2.91-0.41,4.37-0.59c0.34-0.04,0.77,0.11,1.02-0.05c3.09-1.97,6.68-2,10.1-2.61c10.08-1.78,20.26-2.25,30.42-1.07
	c7.56,0.88,15.16,1.79,22.43,4.32c4.36,1.52,8.8,2.85,13.06,4.64c4.68,1.97,9.23,4.27,13.76,6.58c5.64,2.88,10.94,6.31,15.97,10.18
	c4.75,3.65,8.37,8.25,11.77,13.1c1.65,2.36,3.53,4.57,5.13,6.96c1.8,2.69,3.51,5.45,5.08,8.28c1.18,2.14,2.5,3.38,5.24,3.44
	c7.03,0.15,13.94,1.15,20.73,3.23c10.35,3.17,19.72,8.19,28.57,14.3c0.5,0.35,0.97,0.76,1.44,1.15c1.67,1.38,3.27,2.82,5,4.14
	c2.11,1.61,3.84,3.75,5.54,5.82c0.85,1.04,1.24,2.45,1.89,3.66c0.94,1.73,0.96,1.72,3.06,2.72c-1.13,0.66-0.63,1.43-0.17,2.19
	c1.35,2.24,2.71,4.48,4.06,6.72c0.96,1.59,0.97,1.95,0.06,4.63c0.91,0.66,2.36,1.02,2.16,2.63c2.14-0.34,0.97,1.74,1.72,2.44
	c0.13,0.12-0.22,0.77-0.41,1.36c2.51,2.1,3.24,5.38,4.08,8.55c1.12,4.23,2.03,8.51,2.29,12.91c0.3,4.98,0.86,9.95,0.24,14.95
	c-0.18,1.45,0,2.95-0.02,4.43c-0.03,2.36,0.12,4.75-0.19,7.08c-0.51,3.91-1.53,7.75-1.96,11.66c-0.69,6.26-3.22,12.04-4.34,18.18
	c-1.73,1.83-1.6,4.64-3.45,6.43c-0.44,0.43-0.55,1.25-0.71,1.92c-0.53,2.15-1.2,4.17-3.22,5.5c-0.4,0.26-0.56,1.24-0.46,1.83
	c0.33,2.01-0.3,3.5-1.99,4.59c-0.22,0.14-0.46,0.27-0.63,0.46c-0.17,0.19-0.42,0.52-0.35,0.67c0.96,2.21-2.09,3.41-1.38,5.54
	c0.39,1.17,0.06,2.15-0.55,3.22c-0.68,1.19-0.88,2.65-1.52,3.87c-3.17,6.11-6.44,12.15-10.6,17.71c-1.92,2.57-3.86,5.11-5.88,7.59
	c-0.86,1.05-1.4,2.36-2.21,3.46c-0.56,0.77-1.27,1.46-2.02,2.04c-0.72,0.55-1.12,1.07-1.37,2.04c-0.29,1.1-1.17,2.17-2.05,2.97
	c-2.6,2.36-4.32,5.46-6.87,7.85c-0.3,0.28-0.42,0.75-0.78,1.44c1.06,0.53,1.99,1.22,3.02,1.47c4.34,1.05,8.66,2.31,13.07,2.83
	c4.51,0.53,9.11,0.46,13.66,0.35c7.2-0.17,14.04-2.17,20.56-5.1c2.37-1.06,4.5-2.67,6.67-4.13c2.74-1.86,5.58-3.64,8.07-5.8
	c3.5-3.04,6.84-6.3,10.04-9.66c2.23-2.35,4.16-4.99,6.16-7.55c3.86-4.93,7.12-10.28,9.95-15.83c4.9-9.63,9.67-19.34,14.21-29.15
	c3.99-8.61,7.61-17.39,11.34-26.12c2.35-5.48,4.6-11.01,6.91-16.51c0.71-1.7,1.28-3.43,3.89-2.92c0.69,0.14,1.77-0.89,3-0.58
	C514.88,176.13,514.81,176.16,514.81,176.16z M137.14,226.72c0.53,1.01,1.08,2.01,1.59,3.03c2.4,4.88,4.69,9.81,7.24,14.61
	c1.16,2.19,2.24,4.53,4.01,6.24c1.46-0.46,2.7-0.67,3.77-1.22c3.42-1.73,6.78-3.57,10.15-5.38c2.14-1.15,2.23-1.51,0.65-3.21
	c-5.65-6.07-10.5-12.73-14.64-19.93c-4.95-8.61-8.38-17.79-10.76-27.4c-2.3-9.28-3.01-18.72-2.36-28.25
	c0.34-4.93,1.25-9.75,2.7-14.49c1.55-5.09,4.25-9.61,6.71-14.27c1.85-3.51,5.18-5.83,6.78-9.44c2.64-1.13,4.6-2.99,5.92-5.53
	c0.03-0.06,0.16-0.07,0.23-0.12c3.47-3.14,7.64-5.22,11.71-7.4c4.16-2.23,8.37-4.34,13.1-5.28c4.2-0.84,8.31-1.97,12.64-2.11
	c9.49-0.29,17.96,2.54,25.7,7.86c0.49,0.34,1.14,0.71,1.32,1.21c1.18,3.29,3.93,5.43,6.05,7.95c1.99,2.36,3.66,4.87,5.06,7.54
	c1.37,2.62,2.34,5.47,3.34,8.27c0.85,2.38,1.68,4.8,2.19,7.26c0.73,3.51,0.64,7.08,0.42,10.67c-0.24,3.98,0.3,8.03-1.55,11.79
	c-0.07,0.15-0.12,0.39-0.05,0.5c0.84,1.33,0,2.58-0.26,3.81c-1.26,6-2.77,11.93-5.42,17.5c-0.48,1.02-0.69,2.18-1.28,3.12
	c-0.84,1.33-0.9,3.28-2.65,3.68c0,0.75,0.24,1.51-0.04,1.91c-1.37,2.03-2.88,3.96-4.67,6.37c0.58,1.26-0.32,2.49-1.8,3.58
	c-0.51,0.38-0.73,1.16-1.08,1.76c-0.66,1.12-1.07,2.57-2.02,3.28c-1.08,0.79-1.59,1.71-2.05,2.83c-0.22,0.55-0.61,1.04-0.97,1.52
	c-2.68,3.52-6.52,5.94-8.96,9.76c-1.22,1.91-3.24,3.3-4.87,4.96c-0.88,0.9-0.77,1.67,0.35,2.36c0.82,0.51,1.77,0.8,2.58,1.32
	c5.36,3.48,11.33,5.68,17.38,7.42c6.13,1.77,12.46,2.91,18.76,4.01c6.44,1.13,12.96,1.1,19.39-0.21c6.45-1.31,12.58-3.68,18.56-6.36
	c1.39-0.63,2.58-1.7,3.9-2.59c-1.32-3.67-2.63-7.02-3.73-10.45c-1.96-6.1-3.44-12.34-4.98-18.56c-2.09-8.43-2.88-16.99-3.26-25.57
	c-0.27-6.03,0.23-12.12,0.67-18.16c0.57-7.84,2.31-15.47,5.04-22.85c1.22-3.3,2.61-6.53,3.84-9.82c3.07-8.24,7.81-15.5,13.28-22.26
	c3.25-4.01,6.97-7.64,10.57-11.35c1.01-1.04,2.47-1.64,3.53-2.64c1.37-1.28,3.7-1.41,4.3-3.62c0.06-0.22,0.62-0.5,0.86-0.43
	c1.38,0.4,2.06-0.77,3.04-1.25c1-0.49,1.94-1.11,2.93-1.61c1.52-0.77,3.06-1.5,4.82-2.36c-0.4-0.84-0.61-1.61-1.06-2.19
	c-1.52-1.93-3.09-3.83-4.71-5.67c-4.56-5.19-9.87-9.57-15.74-13.13c-5.55-3.37-11.21-6.68-17.18-9.18
	c-5.63-2.36-11.69-3.76-17.62-5.35c-7.59-2.04-15.37-2.92-23.21-2.9c-11.2,0.02-22.23,1.5-33.06,4.41
	c-6.79,1.82-13.37,4.19-19.83,6.93c-6.9,2.92-13.3,6.74-19.54,10.85c-2.63,1.73-5.26,3.5-7.65,5.53
	c-4.71,3.99-8.74,8.63-12.37,13.62c-2.83,3.9-6,7.57-8.7,11.56c-2.3,3.4-4.23,7.06-6.15,10.7c-0.49,0.93-1.15,0.84-1.99,1.06
	c0.26,0.6,0.48,1.12,0.75,1.73c-1.94,1.63-3.93,3.23-3.8,6.12c0.01,0.3-0.21,0.67-0.42,0.93c-0.97,1.21-1.98,2.39-3.05,3.66
	c0.84,1.42,0.38,2.64-0.37,4.09c-0.67,1.3-0.61,2.99-0.81,4.52c-0.15,1.13-0.22,2.28-0.34,3.41c-0.01,0.06-0.13,0.11-0.19,0.16
	c-0.68-0.17-1.36-0.35-2.04-0.52c1.17,1.33,1.71,2.62,1.45,4.29c-0.54,3.46-1.11,6.93-1.47,10.41c-0.51,4.97-1.42,9.91-0.79,14.96
	c0.25,1.98,0.1,4.01,0.19,6.02c0.09,1.92,0.16,3.85,0.43,5.76c0.26,1.89,0.86,3.73,1.12,5.62c1.33,9.94,3.77,19.62,6.77,29.18
	c0.34,1.09,0.3,2.3,0.38,3.01c1.23,2.91,2.32,5.48,3.12,8.05c-0.13,0.41-0.25,0.82-0.38,1.23c0.2,0.01,0.4,0.02,0.6,0.03
	C137.08,227.19,137.01,226.75,137.14,226.72z M359.35,161.73c-0.87,2.74-1.73,5.49-2.61,8.22c-0.43,1.32-0.88,2.64-1.33,3.95
	c-0.65,1.9-0.94,4.07-2.08,5.61c-1.35,1.84-2.43,3.5-2,5.84c0.04,0.23-0.11,0.51-0.23,0.74c-1.18,2.43-2.4,4.84-3.55,7.29
	c-2.17,4.6-4.77,8.92-7.65,13.11c-0.83,1.2-1.67,2.13-3.18,2.36c0.28,0.4,0.61,0.7,0.55,0.8c-0.98,1.72-1.48,3.84-3.58,4.66
	c-1.89,0.74-2.7,2.33-3.41,4.04c-0.22,0.54-0.44,1.23-0.87,1.5c-2.07,1.29-4.49,2.2-4.67,5.19c0,0.07-0.09,0.16-0.16,0.18
	c-1.92,0.67-2.49,2.81-4.15,3.79c-0.73,0.43-1.66,1.1-1.82,1.82c-0.36,1.55-1.42,2.43-2.53,3.18c-1.63,1.09-2.53,2.55-3.09,4.53
	c1.11,1.79,2.19,3.71,3.44,5.5c1.99,2.87,4.08,5.67,6.17,8.47c0.46,0.62,1.07,1.15,1.63,1.69c1.43,1.38,3.04,2.61,4.28,4.14
	c1.48,1.83,3.64,3.13,4.06,5.88c0.15,0.95,1.99,1.65,3.06,2.45c0.76,0.57,1.86,0.99,2.21,1.75c0.89,1.96,2.86,2.73,4.24,4.08
	c2.55,2.47,5.62,4.44,8.58,6.46c4.05,2.75,8,5.66,12.65,7.44c1.85,0.71,3.15,0.55,4.36-1.01c4.14-5.34,8.54-10.49,12.41-16.02
	c7.11-10.18,13.17-20.98,18.18-32.36c3.23-7.33,6.22-14.76,8.37-22.46c2.46-8.79,4.36-17.71,5.35-26.84
	c1.02-9.38,0.45-18.64-1.11-27.83c-1.93-11.38-7.37-21.22-14.93-29.81c-5.2-5.91-11.42-10.66-18.53-14.13
	c-3.23-1.57-6.58-2.89-9.93-4.21c-1.08-0.43-2.3-0.91-3.68-0.05c0.18,1.88,0.32,3.76,0.55,5.64c0.17,1.45,0.88,2.99,0.58,4.32
	c-0.43,1.87-0.3,3.62-0.16,5.45c0.06,0.68-0.05,1.38-0.08,2.07c-0.08,1.56-0.24,3.13-0.25,4.69c-0.01,2.29,0.21,4.6-2,6.18
	c-0.31,0.22-0.42,0.73-0.71,1.26c0.48,0.32,0.88,0.59,1.54,1.04c-0.39,2.85-0.74,5.87-1.22,8.87
	C361.5,154.68,361.01,158.17,359.35,161.73z M285.2,262.08c-4.94,3.64-10.64,5.76-16.23,8.07c-1.94,0.8-3.95,1.58-6,1.96
	c-5.09,0.93-10.22,1.6-15.33,2.4c-5.54,0.87-11.08,0.28-16.56-0.34c-7.35-0.83-14.47-2.83-21.5-5.15
	c-9.05-2.99-17.71-6.81-25.77-11.94c-2.51-1.6-2.5-1.45-4.84,0.26c-3.61,2.64-7.28,5.2-11,7.69c-1.45,0.97-3.11,1.63-4.64,2.5
	c-1.59,0.9-1.66,1.44-0.63,2.89c0.6,0.85,1.58,1.73,1.61,2.63c0.09,3.1,1.79,4.67,4.01,5.35c0.24,0.77,0.26,1.35,0.55,1.66
	c1.75,1.86,3.58,3.63,5.33,5.48c1.09,1.14,2.08,2.34,3.7,2.85c0.62,0.19,1.14,0.79,1.63,1.29c1.48,1.49,2.79,3.17,4.39,4.49
	c3.58,2.94,7.29,5.73,10.98,8.53c7.23,5.5,15.08,9.96,23.23,13.93c2.76,1.34,5.59,2.54,8.33,3.91c6.46,3.23,13.28,5.57,20.27,7.15
	c5.19,1.17,10.31,2.85,15.71,3.15c5.61,0.31,11.2,1.14,16.8,1.17c6.03,0.03,12.04-0.5,18.01-1.82c5.07-1.12,10.06-2.39,14.92-4.17
	c2.46-0.9,4.85-2,7.21-3.15c1.08-0.53,1.92-1.66,3.03-2.02c2.28-0.74,4.32-1.82,6.29-3.17c1.19-0.82,2.62-1.3,3.88-2.02
	c0.75-0.43,1.4-1.03,2.07-1.59c0.46-0.39,0.83-0.91,1.32-1.26c2.15-1.58,4.32-3.12,6.9-4.98c-10.44-6.41-19.91-13.47-28.31-21.9
	c-8.46-8.51-15.6-18.04-21.9-28.52C290.09,259,287.8,260.43,285.2,262.08z M161.89,157.75c-0.26,1.64-0.93,3.35-0.68,4.91
	c0.3,1.88-0.16,3.41-0.91,4.8c0.32,1.04,0.82,1.88,0.78,2.71c-0.16,3.39,1.08,6.55,1.4,9.85c0.09,0.94,0.06,1.93,0.33,2.82
	c1.05,3.43,2.2,6.82,3.32,10.23c0.16,0.5,0.26,1.03,0.5,1.49c1.5,2.86,2.92,5.76,4.57,8.54c1.87,3.15,3.17,6.68,6.06,9.17
	c0.35,0.3,0.43,0.93,0.6,1.42c0.74,2.1,1.55,2.69,3.79,2.75c0.69,1.1,1.33,2.24,2.09,3.29c0.68,0.94,1.38,1.98,2.31,2.61
	c0.75,0.51,1.87,0.49,3.17,0.78c2.83-3.66,6.04-7.4,8.78-11.45c5.26-7.8,9.76-16,13.25-24.8c3.6-9.08,5.12-18.41,4.68-28.09
	c-0.22-4.78-1.34-9.39-3.9-13.54c-2.71-4.41-5.94-8.29-10.81-10.46c-5.12-2.28-10.4-3.22-16.06-2.73
	c-4.46,0.38-8.54,1.83-12.58,3.46c-1.3,0.52-2.59,1.6-3.36,2.77c-1.34,2.03-2.58,4.23-3.32,6.54
	C164.55,148.97,162.63,152.95,161.89,157.75z M311.53,212.4c0.61-0.86,1.2-1.74,1.84-2.57c5.51-7.23,10-15.03,13.66-23.35
	c4.69-10.66,8.72-21.52,10.46-33.1c0.86-5.73,1.92-11.47,2.22-17.24c0.44-8.29-0.72-16.48-3.21-24.44
	c-0.74-2.37-1.12-2.66-3.65-2.02c-4.42,1.11-8.78,2.47-12.83,4.6c-1.84,0.97-3.84,2.04-5.09,3.61c-2.44,3.07-4.5,6.46-6.49,9.85
	c-0.8,1.35-1.18,2.9-2.68,3.77c-0.4,0.23-0.7,0.79-0.84,1.26c-1.61,5.34-3.05,10.74-4.81,16.03c-2.41,7.29-2.71,14.96-4.15,22.41
	c-0.25,1.3,0.91,3.09,0.36,4.08c-0.81,1.47-0.2,2.78-0.18,4.01c0.08,3.65,1.03,7.22,1.04,10.94c0.01,4.78,1.39,9.44,2.42,14.09
	c0.89,4,2.46,7.86,3.76,11.86c0.37-0.05,0.76-0.09,1.15-0.14c0.54,0.85,1.08,1.69,1.86,2.92
	C308.18,216.66,309.73,214.68,311.53,212.4z"/>
</svg>
